<svg width="128" height="29" viewBox="0 0 128 29" fill="none" xmlns="http://www.w3.org/2000/svg">
<path d="M3.81 18.903L18.56 3.087L15.249 0L0.5 15.816L3.81 18.903ZM6.292 29L21.04 13.184L17.73 10.097L2.982 25.913L6.292 29ZM37.553 10.784C37.1683 10.3029 36.6742 9.92069 36.112 9.669C35.518 9.393 34.946 9.255 34.394 9.255C34.11 9.255 33.822 9.28 33.53 9.33C33.237 9.38 32.974 9.477 32.74 9.619C32.506 9.761 32.31 9.945 32.15 10.17C31.992 10.396 31.913 10.684 31.913 11.035C31.913 11.335 31.975 11.587 32.101 11.787C32.226 11.987 32.41 12.163 32.652 12.314C32.894 12.464 33.182 12.602 33.517 12.727C33.851 12.853 34.227 12.982 34.645 13.116C35.247 13.316 35.874 13.538 36.525 13.78C37.1618 14.0141 37.7613 14.3391 38.305 14.745C38.84 15.146 39.283 15.644 39.634 16.237C39.984 16.83 40.16 17.57 40.16 18.456C40.16 19.475 39.972 20.356 39.596 21.1C39.2381 21.8221 38.7195 22.4526 38.08 22.943C37.4273 23.4364 36.6874 23.8022 35.899 24.021C35.0755 24.2553 34.2232 24.3731 33.367 24.371C32.097 24.371 30.868 24.151 29.682 23.708C28.495 23.265 27.509 22.634 26.723 21.815L29.531 18.957C29.966 19.492 30.538 19.939 31.248 20.298C31.958 20.658 32.665 20.838 33.367 20.838C33.684 20.838 33.993 20.804 34.294 20.737C34.595 20.67 34.858 20.561 35.084 20.411C35.309 20.261 35.489 20.06 35.623 19.809C35.757 19.559 35.823 19.258 35.823 18.907C35.823 18.573 35.74 18.288 35.573 18.054C35.3791 17.796 35.1361 17.5788 34.858 17.415C34.4942 17.1978 34.1075 17.0214 33.705 16.889C33.245 16.73 32.723 16.559 32.138 16.375C31.5698 16.1911 31.0131 15.9734 30.471 15.723C29.9387 15.4796 29.4481 15.1539 29.017 14.758C28.5829 14.3542 28.2335 13.8681 27.989 13.328C27.73 12.769 27.601 12.088 27.601 11.286C27.601 10.3 27.801 9.456 28.202 8.754C28.5911 8.06529 29.1313 7.47379 29.782 7.024C30.4521 6.56458 31.1993 6.22926 31.988 6.034C32.7989 5.82588 33.6328 5.72039 34.47 5.72C35.472 5.72 36.496 5.904 37.54 6.272C38.585 6.64 39.5 7.182 40.286 7.902L37.553 10.784ZM47.23 14.52V19.283C47.23 19.868 47.343 20.306 47.568 20.599C47.794 20.891 48.199 21.038 48.784 21.038C48.984 21.038 49.198 21.021 49.424 20.988C49.6175 20.9633 49.8069 20.9129 49.987 20.838L50.037 23.845C49.754 23.945 49.394 24.033 48.96 24.109C48.5293 24.1836 48.0931 24.2211 47.656 24.221C46.82 24.221 46.118 24.117 45.55 23.908C44.982 23.699 44.527 23.398 44.184 23.006C43.8343 22.6 43.5812 22.12 43.444 21.602C43.2874 21.0089 43.2117 20.3974 43.219 19.784V14.52H41.213V11.436H43.193V8.152H47.23V11.436H50.163V14.52H47.23ZM59.464 18.48H58.937C58.486 18.48 58.031 18.501 57.571 18.543C57.111 18.585 56.701 18.665 56.343 18.781C56.0109 18.882 55.7065 19.0579 55.453 19.295C55.219 19.521 55.102 19.818 55.102 20.185C55.102 20.419 55.156 20.62 55.265 20.787C55.373 20.954 55.511 21.087 55.678 21.188C55.845 21.288 56.038 21.359 56.255 21.401C56.472 21.443 56.681 21.464 56.882 21.464C57.717 21.464 58.356 21.234 58.799 20.774C59.242 20.314 59.464 19.692 59.464 18.907V18.481V18.48ZM51.918 13.14C52.6536 12.4381 53.5295 11.9 54.488 11.561C55.4483 11.2133 56.4617 11.0353 57.483 11.035C58.536 11.035 59.426 11.165 60.153 11.424C60.88 11.683 61.469 12.084 61.92 12.627C62.372 13.17 62.702 13.855 62.91 14.683C63.12 15.51 63.224 16.492 63.224 17.628V23.921H59.464V22.592H59.388C59.071 23.11 58.59 23.512 57.947 23.795C57.287 24.0824 56.5738 24.2276 55.854 24.221C55.3294 24.2183 54.8072 24.1511 54.299 24.021C53.7756 23.8921 53.2792 23.6714 52.833 23.369C52.3811 23.0581 52.0079 22.6462 51.743 22.166C51.458 21.664 51.316 21.046 51.316 20.311C51.316 19.408 51.563 18.681 52.056 18.13C52.549 17.578 53.184 17.152 53.961 16.851C54.738 16.551 55.603 16.35 56.556 16.25C57.508 16.15 58.436 16.099 59.338 16.099V15.899C59.338 15.28 59.121 14.825 58.687 14.532C58.252 14.24 57.717 14.093 57.082 14.093C56.497 14.093 55.933 14.219 55.39 14.47C54.8823 14.6972 54.4128 15.0014 53.998 15.372L51.918 13.141V13.14ZM70.606 14.52V19.283C70.606 19.868 70.718 20.306 70.944 20.599C71.169 20.891 71.574 21.038 72.16 21.038C72.36 21.038 72.573 21.021 72.799 20.988C73.025 20.954 73.213 20.904 73.363 20.838L73.413 23.845C73.129 23.945 72.77 24.033 72.335 24.109C71.9047 24.1836 71.4687 24.221 71.032 24.221C70.196 24.221 69.494 24.117 68.926 23.908C68.358 23.699 67.902 23.398 67.56 23.006C67.2102 22.6001 66.9571 22.12 66.82 21.602C66.6631 21.009 66.5871 20.3974 66.594 19.784V14.52H64.59V11.436H66.57V8.152H70.607V11.436H73.54V14.52H70.607H70.606ZM79.931 7.45C79.931 7.768 79.868 8.064 79.743 8.34C79.6233 8.6082 79.4532 8.85092 79.242 9.055C78.7889 9.47558 78.1932 9.70859 77.575 9.707C76.906 9.707 76.346 9.485 75.895 9.042C75.6781 8.83792 75.506 8.59105 75.3895 8.31702C75.2729 8.04299 75.2146 7.74776 75.218 7.45C75.218 7.15 75.277 6.861 75.394 6.585C75.511 6.31 75.678 6.071 75.895 5.871C76.112 5.671 76.363 5.507 76.647 5.382C76.931 5.257 77.24 5.194 77.575 5.194C77.892 5.194 78.197 5.252 78.49 5.369C78.782 5.486 79.033 5.645 79.242 5.846C79.451 6.046 79.618 6.285 79.743 6.56C79.869 6.836 79.931 7.133 79.931 7.45ZM75.52 23.92V11.437H79.631V23.922H75.52V23.92ZM90.793 15.472C90.5391 15.1559 90.212 14.9063 89.84 14.745C89.4555 14.5652 89.0365 14.4713 88.612 14.47C88.177 14.47 87.784 14.557 87.433 14.733C87.0882 14.9039 86.7814 15.1427 86.531 15.435C86.281 15.727 86.084 16.065 85.941 16.45C85.7977 16.8434 85.7259 17.2593 85.729 17.678C85.729 18.113 85.796 18.522 85.929 18.907C86.0569 19.2809 86.2574 19.6258 86.519 19.922C86.777 20.215 87.087 20.444 87.446 20.612C87.806 20.779 88.211 20.862 88.662 20.862C89.08 20.862 89.493 20.782 89.902 20.624C90.312 20.465 90.642 20.235 90.892 19.934L93.174 22.717C92.656 23.219 91.988 23.611 91.169 23.895C90.3298 24.1828 89.4481 24.3272 88.561 24.322C87.623 24.3296 86.6905 24.1767 85.804 23.87C84.9822 23.5875 84.227 23.1396 83.585 22.554C82.9512 21.9673 82.4473 21.2543 82.106 20.461C81.746 19.642 81.567 18.715 81.567 17.678C81.567 16.658 81.747 15.74 82.107 14.921C82.4481 14.1278 82.9515 13.4148 83.585 12.828C84.2284 12.2409 84.9829 11.7886 85.804 11.498C87.1093 11.0322 88.5137 10.9157 89.878 11.16C90.321 11.244 90.747 11.357 91.156 11.499C91.566 11.641 91.942 11.816 92.284 12.025C92.627 12.235 92.924 12.464 93.174 12.715L90.793 15.472ZM105.884 23.921L99.291 15.748H99.241V23.921H95.029V6.17H99.241V13.39H99.316L105.659 6.17H111.023L103.377 14.343L111.475 23.92H105.884V23.921ZM117.09 7.451C117.09 7.768 117.028 8.064 116.902 8.341C116.782 8.60892 116.612 8.85133 116.401 9.055C115.948 9.47523 115.352 9.70819 114.734 9.707C114.065 9.707 113.505 9.485 113.054 9.042C112.837 8.83788 112.665 8.59101 112.549 8.31699C112.432 8.04297 112.374 7.74775 112.377 7.45C112.377 7.15 112.436 6.861 112.553 6.585C112.67 6.31 112.837 6.071 113.054 5.871C113.271 5.671 113.522 5.507 113.806 5.382C114.09 5.257 114.399 5.194 114.734 5.194C115.352 5.19281 115.948 5.42577 116.401 5.846C116.61 6.046 116.777 6.285 116.902 6.56C117.028 6.836 117.09 7.133 117.09 7.45V7.451ZM112.678 23.921V11.436H116.789V23.921H112.678ZM124.511 14.52V19.283C124.511 19.868 124.623 20.306 124.849 20.599C125.075 20.891 125.48 21.038 126.065 21.038C126.265 21.038 126.479 21.021 126.704 20.988C126.898 20.9635 127.088 20.9131 127.268 20.838L127.318 23.845C127.034 23.945 126.675 24.033 126.24 24.109C125.81 24.1836 125.374 24.2211 124.937 24.221C124.101 24.221 123.399 24.117 122.831 23.908C122.263 23.699 121.807 23.398 121.465 23.006C121.115 22.6 120.862 22.1199 120.725 21.602C120.569 21.0089 120.493 20.3974 120.5 19.784V14.52H118.494V11.436H120.475V8.152H124.511V11.436H127.444V14.52H124.511Z" fill="#B7B7B7"/>
</svg>
