<svg width="158" height="42" viewBox="0 0 158 42" fill="none" xmlns="http://www.w3.org/2000/svg">
<path d="M19.8344 34.3232C20.0947 34.5838 20.4477 34.7304 20.816 34.731C21.567 34.731 22.203 34.093 22.203 33.34V8.36998C22.203 8.00168 22.0568 7.64843 21.7966 7.38781C21.5363 7.12719 21.1833 6.98051 20.815 6.97998C20.035 6.97998 19.428 7.61698 19.428 8.36998V33.341C19.428 33.7093 19.5742 34.0625 19.8344 34.3232Z" fill="#B7B7B7"/>
<path d="M8.383 22.247H15.033L15.034 22.246C15.4027 22.246 15.7562 22.0995 16.0169 21.8389C16.2776 21.5782 16.424 21.2246 16.424 20.856C16.424 20.4873 16.2776 20.1338 16.0169 19.8731C15.7562 19.6124 15.4027 19.466 15.034 19.466H8.384C7.603 19.466 6.996 20.074 6.996 20.857C6.996 21.2251 7.14204 21.5782 7.40206 21.8388C7.66209 22.0994 8.01487 22.2462 8.383 22.247Z" fill="#B7B7B7"/>
<path d="M26.598 22.247H33.276C34.028 22.247 34.635 21.638 34.635 20.856C34.635 20.4879 34.489 20.1348 34.2289 19.8742C33.9689 19.6136 33.6161 19.4668 33.248 19.466H26.598C25.817 19.466 25.21 20.074 25.21 20.857C25.21 21.2253 25.3562 21.5785 25.6164 21.8392C25.8767 22.0998 26.2297 22.2465 26.598 22.247Z" fill="#B7B7B7"/>
<path fill-rule="evenodd" clip-rule="evenodd" d="M0 20.856C0 32.356 9.338 41.712 20.816 41.712C32.294 41.712 41.632 32.356 41.632 20.856C41.632 9.356 32.294 0 20.816 0C9.338 0 0 9.356 0 20.856ZM2.776 20.856C2.776 10.891 10.871 2.781 20.816 2.781C30.762 2.781 38.856 10.891 38.856 20.856C38.856 30.821 30.762 38.931 20.816 38.931C10.871 38.931 2.776 30.821 2.776 20.856Z" fill="#B7B7B7"/>
<path d="M55.423 12.687V15.178H59.47V29.053H62.304V15.178H66.38V12.687H55.423Z" fill="#B7B7B7"/>
<path d="M72.191 19.639C72.6369 19.6382 73.082 19.677 73.521 19.755V17.235L73.5019 17.2331C73.2192 17.2047 72.9335 17.176 72.51 17.176C70.977 17.176 69.82 18.191 69.3 19.176H69.242V17.554H66.611V29.024H69.301V23.231C69.301 20.827 70.37 19.639 72.191 19.639Z" fill="#B7B7B7"/>
<path fill-rule="evenodd" clip-rule="evenodd" d="M86.416 29.024V17.553H83.814V19.117H83.756C83.062 18.219 81.905 17.206 79.997 17.206C76.875 17.206 74.302 19.639 74.302 23.289C74.302 27.402 77.222 29.459 79.795 29.459C81.703 29.459 82.947 28.561 83.727 27.576H83.785V29.024H86.416ZM83.9 23.346C83.9 25.548 82.252 27.084 80.489 27.084C78.118 27.084 77.019 25.2 77.019 23.289C77.019 21.406 78.147 19.494 80.518 19.494C82.397 19.494 83.9 21.029 83.9 23.346Z" fill="#B7B7B7"/>
<path d="M92.17 17.553H89.51L89.509 29.053H92.198V22.97C92.198 20.74 93.354 19.552 95.031 19.552C96.564 19.552 97.488 20.594 97.488 22.564V29.024H100.178V22.42C100.178 18.741 98.096 17.177 95.725 17.177C94.453 17.177 93.123 17.698 92.227 19.002H92.17V17.553Z" fill="#B7B7B7"/>
<path d="M106.769 19.118C107.55 19.118 108.186 19.668 108.302 20.508L110.73 20.507C110.441 18.625 109.14 17.177 106.682 17.177C104.254 17.177 102.779 18.567 102.779 20.45C102.779 22.246 103.878 23.318 106.018 24.013C107.926 24.65 108.417 25.201 108.417 26.069C108.417 26.852 107.839 27.489 106.827 27.489C105.642 27.489 105.063 26.765 104.948 25.809H102.461C102.664 27.952 104.023 29.459 106.769 29.459C109.4 29.459 110.99 27.981 110.99 25.867C110.99 24.245 110.123 22.97 107.665 22.188C105.671 21.522 105.324 21.029 105.324 20.334C105.324 19.697 105.844 19.118 106.769 19.118Z" fill="#B7B7B7"/>
<path d="M116.31 12.281H113.332V15.004H116.31V12.281Z" fill="#B7B7B7"/>
<path d="M116.165 17.553H113.477V29.053H116.165V17.553Z" fill="#B7B7B7"/>
<path d="M122.93 19.118C123.711 19.118 124.347 19.668 124.463 20.508L126.891 20.507C126.602 18.625 125.301 17.177 122.844 17.177C120.415 17.177 118.941 18.567 118.941 20.45C118.941 22.246 120.039 23.318 122.179 24.013C124.087 24.65 124.578 25.201 124.578 26.069C124.578 26.852 124 27.489 122.988 27.489C121.803 27.489 121.225 26.765 121.109 25.809H118.623C118.825 27.952 120.184 29.459 122.93 29.459C125.561 29.459 127.151 27.981 127.151 25.867C127.151 24.245 126.284 22.97 123.827 22.188C121.832 21.522 121.485 21.029 121.485 20.334C121.485 19.697 122.005 19.118 122.93 19.118Z" fill="#B7B7B7"/>
<path d="M129.753 17.553H128.308V19.813H129.753V25.085C129.753 27.431 130.505 29.169 133.367 29.169C134.032 29.169 134.784 29.082 135.391 28.908V26.736C134.986 26.852 134.466 26.939 134.003 26.939C132.905 26.939 132.413 26.504 132.413 24.94V19.813H135.304V17.553H132.442V13.875H129.753V17.553Z" fill="#B7B7B7"/>
<path fill-rule="evenodd" clip-rule="evenodd" d="M148.748 23.289C148.748 19.813 146.204 17.177 142.619 17.177C139.15 17.177 136.49 19.726 136.49 23.289C136.49 26.765 139.121 29.459 142.619 29.459C146.175 29.459 148.748 26.678 148.748 23.289ZM146.03 23.289C146.03 25.432 144.643 27.054 142.619 27.054C140.769 27.054 139.207 25.49 139.207 23.289C139.207 21.145 140.566 19.552 142.619 19.552C144.729 19.552 146.03 21.261 146.03 23.289Z" fill="#B7B7B7"/>
<path d="M153.78 23.231C153.78 20.827 154.849 19.639 156.671 19.639C157.117 19.6382 157.562 19.677 158.001 19.755V17.235L157.98 17.2329C157.697 17.2045 157.412 17.176 156.989 17.176C155.456 17.176 154.3 18.191 153.78 19.176H153.722V17.554H151.091V29.024H153.78V23.231Z" fill="#B7B7B7"/>
</svg>
