<svg width="136" height="40" viewBox="0 0 136 40" fill="none" xmlns="http://www.w3.org/2000/svg">
<path fill-rule="evenodd" clip-rule="evenodd" d="M38.4576 9.02409L38.4594 9.02804C38.4609 9.0312 38.4624 9.03436 38.4637 9.03752C38.4651 9.04103 38.4663 9.04454 38.467 9.04805C38.4812 9.10157 38.4886 9.15668 38.489 9.21205V17.7981C38.4892 17.9079 38.4605 18.0158 38.4059 18.111C38.3514 18.2063 38.2728 18.2856 38.178 18.3411L31.04 22.4911V30.7141C31.0401 30.8239 31.0113 30.9319 30.9565 31.0272C30.9018 31.1225 30.823 31.2018 30.728 31.2571L15.829 39.9171C15.7947 39.9356 15.7585 39.9504 15.721 39.9611C15.7163 39.9631 15.7118 39.9653 15.7072 39.9675C15.6981 39.9719 15.689 39.9764 15.679 39.9791C15.5749 40.0071 15.4651 40.0071 15.361 39.9791C15.3541 39.9771 15.3473 39.9746 15.3408 39.9717L15.333 39.9681L15.313 39.9581L15.3021 39.9543C15.2708 39.9437 15.2396 39.9331 15.21 39.9161L0.311002 31.2571C0.216219 31.2016 0.137623 31.1223 0.0830536 31.027C0.0284841 30.9318 -0.000151817 30.8239 6.05316e-07 30.7141V4.95605C0.000386108 4.90107 0.0074376 4.84634 0.0210018 4.79305C0.0241348 4.78313 0.0283584 4.77403 0.0325337 4.76503C0.0363514 4.75681 0.0401371 4.74865 0.0430018 4.74005L0.0630018 4.68705C0.0685774 4.67192 0.0752622 4.65721 0.0830018 4.64305C0.0903992 4.63072 0.0996966 4.61954 0.10902 4.60832C0.11482 4.60134 0.120633 4.59434 0.126002 4.58705C0.130945 4.58019 0.135662 4.57325 0.14036 4.56633C0.152769 4.54807 0.165044 4.53001 0.181002 4.51405C0.192514 4.50254 0.205662 4.49308 0.218876 4.48356C0.226323 4.4782 0.233794 4.47282 0.241002 4.46705C0.248029 4.46156 0.25487 4.45587 0.261694 4.4502C0.277208 4.4373 0.29264 4.42447 0.310002 4.41405L7.76 0.0840545C7.85412 0.0292435 7.96109 0.000366211 8.07 0.000366211C8.17892 0.000366211 8.28588 0.0292435 8.38 0.0840545L15.83 4.41405C15.8474 4.42447 15.8628 4.4373 15.8783 4.45019C15.8851 4.45586 15.892 4.46156 15.899 4.46705L15.92 4.48305C15.934 4.49305 15.948 4.50306 15.96 4.51405C15.9749 4.52977 15.9883 4.54684 16 4.56505L16.015 4.58705C16.0204 4.59493 16.0265 4.60229 16.0326 4.6097C16.0412 4.62016 16.05 4.63077 16.057 4.64305C16.0714 4.66841 16.0815 4.69663 16.0915 4.72468L16.097 4.74005L16.107 4.76205L16.119 4.79205C16.133 4.84559 16.1401 4.90071 16.14 4.95605V21.0441L22.348 17.4361V9.21205C22.3483 9.157 22.3557 9.10221 22.37 9.04905C22.3728 9.03833 22.3772 9.02856 22.3816 9.01885C22.385 9.01136 22.3884 9.0039 22.391 8.99605L22.398 8.97605C22.4067 8.94946 22.4177 8.92369 22.431 8.89905C22.4387 8.88637 22.4474 8.87433 22.457 8.86305C22.4629 8.85655 22.4685 8.84988 22.474 8.84305L22.4876 8.82362C22.5006 8.80492 22.5134 8.78639 22.529 8.77005C22.5365 8.76256 22.544 8.75674 22.5515 8.75093L22.559 8.74505L22.5658 8.74033C22.5738 8.73488 22.582 8.72924 22.589 8.72305L22.625 8.69305C22.6354 8.68456 22.6464 8.67687 22.658 8.67005L30.108 4.34005C30.2021 4.28524 30.3091 4.25637 30.418 4.25637C30.5269 4.25637 30.6339 4.28524 30.728 4.34005L38.178 8.67005C38.1944 8.67949 38.2083 8.69129 38.2222 8.70298C38.2303 8.70988 38.2385 8.71674 38.247 8.72305L38.269 8.73905L38.2764 8.7447C38.2872 8.75285 38.2981 8.76112 38.307 8.77005C38.322 8.78601 38.3354 8.80343 38.347 8.82205L38.363 8.84305C38.3681 8.84987 38.3735 8.85654 38.379 8.86305C38.389 8.87505 38.398 8.88605 38.405 8.89905C38.4185 8.92473 38.4299 8.95149 38.439 8.97905L38.445 8.99605L38.455 9.01805L38.4576 9.02409ZM9.322 26.4531L15.518 29.9931L29.17 22.1261L22.969 18.5211L9.322 26.4531ZM29.798 21.0441V13.9041L23.59 10.2971V17.4371L29.798 21.0441ZM36.624 9.21305L30.418 5.60605L24.213 9.21305L30.418 12.8191L36.624 9.21305ZM8.691 9.64805V25.3741L14.899 21.7651V6.04005L8.69 9.64805H8.691ZM14.275 4.95605L8.07 1.35005L1.864 4.95605L8.07 8.56305L14.275 4.95605ZM7.449 9.65005L1.241 6.04005V30.3501L14.9 38.2901V31.0801L7.765 27.0041L7.763 27.0031L7.759 27.0001C7.74114 26.9893 7.72584 26.9761 7.71053 26.9628L7.70069 26.9543L7.692 26.9471C7.68481 26.9418 7.67748 26.9368 7.67 26.9321C7.65681 26.9232 7.64443 26.9131 7.633 26.9021L7.631 26.9001C7.61993 26.889 7.6103 26.8757 7.60089 26.8628L7.596 26.8561C7.59083 26.8486 7.58549 26.8413 7.58 26.8341L7.55 26.7961C7.54412 26.7888 7.53878 26.7811 7.534 26.7731L7.533 26.7711C7.52331 26.754 7.51559 26.7359 7.51 26.7171L7.5 26.6931L7.485 26.6601C7.47925 26.6478 7.47456 26.6351 7.471 26.6221C7.46565 26.6001 7.4623 26.5766 7.461 26.5541L7.458 26.5291L7.45624 26.5164L7.454 26.5031L7.45258 26.4937C7.45083 26.4825 7.449 26.4708 7.449 26.4591V9.65005ZM16.14 38.2901L29.797 30.3531V23.2091L16.14 31.0791V38.2901ZM31.04 21.0431L37.248 17.4351V10.2951L31.04 13.9041V21.0431Z" fill="#B7B7B7"/>
<path d="M132.739 9.21399H136V30.36H132.739V9.21399Z" fill="#B7B7B7"/>
<path d="M48.393 9.21499H51.834V27.249H58.297V30.36H48.393V9.21499Z" fill="#B7B7B7"/>
<path fill-rule="evenodd" clip-rule="evenodd" d="M70.446 18.186C70.006 17.481 69.384 16.928 68.576 16.525C67.767 16.122 66.955 15.92 66.137 15.92C65.079 15.92 64.112 16.117 63.235 16.51C62.3784 16.8874 61.609 17.4375 60.975 18.126C60.3423 18.8177 59.8451 19.622 59.509 20.497C59.159 21.393 58.985 22.335 58.985 23.321C58.9782 24.2924 59.156 25.2561 59.509 26.161C59.8471 27.0304 60.3439 27.8293 60.974 28.517C61.6079 29.2057 62.3773 29.7559 63.234 30.133C64.112 30.526 65.079 30.722 66.136 30.722C66.955 30.722 67.768 30.521 68.576 30.118C69.384 29.716 70.007 29.162 70.446 28.457V30.36H73.707V16.283H70.446V18.186ZM70.147 25.043C69.9603 25.5653 69.6759 26.0472 69.309 26.463C68.9447 26.8699 68.5018 27.1989 68.007 27.43C67.498 27.672 66.934 27.792 66.316 27.792C65.737 27.8009 65.1637 27.6771 64.64 27.43C64.142 27.188 63.714 26.866 63.354 26.463C62.9883 26.0489 62.7085 25.5662 62.531 25.043C62.341 24.5 62.247 23.926 62.247 23.322C62.2437 22.7361 62.3397 22.1539 62.531 21.6C62.72 21.056 62.994 20.583 63.354 20.18C63.7147 19.776 64.1517 19.4474 64.64 19.213C65.139 18.971 65.697 18.851 66.317 18.851C66.9003 18.8435 67.4779 18.9672 68.007 19.213C68.5017 19.4445 68.9445 19.7734 69.309 20.18C69.6758 20.596 69.9602 21.0779 70.147 21.6C70.346 22.143 70.447 22.717 70.447 23.322C70.449 23.9089 70.3475 24.4915 70.147 25.043Z" fill="#B7B7B7"/>
<path fill-rule="evenodd" clip-rule="evenodd" d="M95.088 16.525C95.895 16.928 96.518 17.481 96.958 18.186V16.283H100.219V30.36H96.958V28.458C96.518 29.162 95.896 29.716 95.088 30.118C94.279 30.521 93.467 30.723 92.649 30.723C91.591 30.723 90.624 30.526 89.747 30.133C88.8903 29.756 88.1208 29.2058 87.487 28.517C86.8566 27.8297 86.3595 27.0311 86.021 26.162C85.671 25.275 85.497 24.329 85.497 23.322C85.4931 22.3559 85.6709 21.3976 86.021 20.497C86.3567 19.622 86.8537 18.8178 87.486 18.126C88.12 17.4375 88.8894 16.8874 89.746 16.51C90.624 16.117 91.591 15.921 92.648 15.921C93.467 15.921 94.28 16.122 95.088 16.525ZM95.82 26.463C96.1869 26.0472 96.4713 25.5653 96.658 25.043C96.858 24.5 96.958 23.926 96.958 23.322C96.958 22.717 96.857 22.143 96.659 21.6C96.459 21.056 96.18 20.583 95.82 20.18C95.461 19.778 95.028 19.455 94.518 19.213C94.01 18.971 93.446 18.851 92.828 18.851C92.249 18.8422 91.6757 18.966 91.152 19.213C90.6637 19.4473 90.2266 19.776 89.866 20.18C89.4998 20.5938 89.22 21.0766 89.043 21.6C88.853 22.143 88.758 22.717 88.758 23.322C88.755 23.9077 88.8514 24.4896 89.043 25.043C89.2203 25.5664 89.5 26.0491 89.866 26.463C90.2265 26.8673 90.6636 27.1959 91.152 27.43C91.651 27.672 92.21 27.792 92.828 27.792C93.4117 27.7997 93.9896 27.676 94.519 27.43C95.0134 27.1988 95.456 26.8698 95.82 26.463Z" fill="#B7B7B7"/>
<path d="M76.281 30.36H79.543V19.523H85.139V16.283H76.28L76.281 30.36Z" fill="#B7B7B7"/>
<path d="M109.197 27.063L113.296 16.283H116.6L111.246 30.36H107.147L101.794 16.283H105.097L109.197 27.063Z" fill="#B7B7B7"/>
<path fill-rule="evenodd" clip-rule="evenodd" d="M116.558 23.321C116.558 19.235 119.72 15.921 123.714 15.921C128.155 15.921 131.183 19.895 130.615 24.545H119.794C119.794 25.759 121.009 28.107 123.893 28.107C126.32 28.107 127.963 25.9986 128.036 25.9061C128.037 25.9041 128.038 25.903 128.038 25.903L130.241 27.624C128.271 29.747 126.658 30.722 124.132 30.722C119.618 30.722 116.558 27.84 116.558 23.321ZM123.688 18.536C120.204 18.536 119.828 21.828 119.803 22.098H127.619C127.595 21.827 127.172 18.536 123.688 18.536Z" fill="#B7B7B7"/>
</svg>
