<svg width="147" height="27" viewBox="0 0 147 27" fill="none" xmlns="http://www.w3.org/2000/svg">
<path fill-rule="evenodd" clip-rule="evenodd" d="M29.2774 22.6769C29.2774 25.1199 28.4274 26.1189 26.1124 26.1189H5.57037C3.25437 26.1189 2.40537 25.1199 2.40537 22.6769V17.9199C2.40537 15.6259 1.30037 14.3299 0.238373 13.7359C0.165311 13.6916 0.104901 13.6293 0.0629752 13.5548C0.0210494 13.4804 -0.000976563 13.3964 -0.000976562 13.3109C-0.000976563 13.2255 0.0210494 13.1415 0.0629752 13.0671C0.104901 12.9926 0.165311 12.9302 0.238373 12.8859C1.34337 12.1849 2.40537 10.7189 2.40537 8.76494V4.08994C2.40537 1.45594 3.12737 0.689941 5.44237 0.689941H26.2404C28.5564 0.689941 29.2784 1.45594 29.2784 4.08994V8.76294C29.2784 10.7169 30.3404 12.1829 31.4444 12.8829C31.7644 13.0959 31.7644 13.5429 31.4444 13.7329C30.3824 14.3489 29.2784 15.6449 29.2784 17.9179V22.6759L29.2774 22.6769ZM9.81937 19.5549C11.4974 21.0199 13.3034 21.7639 15.7894 21.7639C19.6974 21.7639 22.2464 19.8099 22.2464 16.6439C22.2464 13.2919 19.2104 12.4369 16.7414 11.7419C15.0484 11.2649 13.6214 10.8629 13.6214 9.78294C13.6214 9.08294 14.3654 8.40294 15.6184 8.40294C16.8294 8.40294 17.8284 8.65794 18.7834 9.14594C19.1024 9.29494 19.3994 9.40094 19.6754 9.40094C20.0794 9.40094 20.3984 9.20994 20.6744 8.82794L21.0564 8.25394C21.2054 8.04194 21.2694 7.80794 21.2694 7.55394C21.2694 7.12794 21.0564 6.70394 20.7384 6.49094C19.4634 5.68394 17.7424 5.00394 15.4064 5.00394C12.0924 5.00394 9.54337 6.74594 9.54337 9.86794C9.54337 13.3589 12.6454 14.2449 15.1294 14.9529C16.7864 15.4259 18.1674 15.8199 18.1674 16.8569C18.1674 17.8549 17.2334 18.3439 16.0644 18.3439C14.6607 18.3573 13.2851 17.9505 12.1144 17.1759C11.7524 16.9419 11.4124 16.7929 11.0514 16.7929C10.7324 16.7929 10.4564 16.9419 10.2014 17.2609L9.69137 17.9189C9.50137 18.1319 9.43737 18.4079 9.43737 18.6629C9.43737 18.9809 9.54337 19.2999 9.81937 19.5549ZM41.5554 17.5999C41.2794 17.5999 41.0454 17.7069 40.8334 17.9829L40.4084 18.5779C40.2384 18.7679 40.1954 19.0019 40.1954 19.2149C40.1954 19.4909 40.3014 19.7669 40.5354 19.9799C41.9374 21.1899 43.4674 21.8279 45.5704 21.8279C48.8624 21.8279 51.0294 20.1709 51.0294 17.5149C51.0294 14.6909 48.4614 13.9699 46.3754 13.3839C44.9464 12.9819 43.7434 12.6439 43.7434 11.7379C43.7434 11.1219 44.3804 10.5689 45.4214 10.5689C46.3447 10.5657 47.2553 10.7845 48.0764 11.2069L48.1404 11.2309C48.3924 11.3289 48.6254 11.4189 48.8404 11.4189C49.1604 11.4189 49.4364 11.2699 49.6704 10.9299L50.0104 10.4419C50.1251 10.2572 50.1842 10.0434 50.1804 9.82594C50.1804 9.46494 50.0104 9.10394 49.7334 8.93394C48.6504 8.21094 47.2054 7.65894 45.2304 7.65894C42.4474 7.65894 40.2804 9.14594 40.2804 11.7799C40.2804 14.7069 42.8954 15.4539 44.9924 16.0519C46.3954 16.4519 47.5664 16.7869 47.5664 17.6639C47.5664 18.5349 46.7804 18.9389 45.7824 18.9389C44.4864 18.9389 43.4024 18.5779 42.4474 17.9399C42.1714 17.7279 41.8314 17.5999 41.5554 17.5999ZM61.8414 19.8949C61.8448 19.7137 61.7928 19.5358 61.6924 19.3849L61.4164 18.9389C61.1614 18.4929 60.8644 18.3229 60.4814 18.3229C60.2914 18.3229 60.0784 18.3649 59.8014 18.4709C59.5264 18.5779 59.2074 18.6199 58.8464 18.6199C57.7204 18.6199 57.2314 17.6429 57.2314 16.1769V11.2499H60.4814C61.0974 11.2499 61.6074 10.7399 61.6074 10.1239V9.10394C61.6074 8.48894 61.0974 7.97894 60.4814 7.97894H57.2314V5.34494C57.2314 4.72894 56.7214 4.21894 56.1064 4.21894H54.8954C54.2794 4.21894 53.7694 4.72894 53.7694 5.34494V16.3049C53.7694 19.7679 54.9164 21.7439 57.9544 21.7439C59.2924 21.7439 60.3124 21.4679 61.3314 20.8509C61.6714 20.6809 61.8414 20.2779 61.8414 19.8959V19.8949ZM68.7234 13.1399C65.9834 13.1399 63.7954 14.5419 63.7954 17.5149C63.7954 20.1279 65.5584 21.6579 67.9594 21.6789C69.7854 21.6789 71.2294 20.9779 71.9524 19.9589V20.4039C71.9524 21.0199 72.4624 21.5299 73.0784 21.5299H73.8644C74.4804 21.5299 74.9904 21.0199 74.9904 20.4039V13.3099C74.9904 9.74194 73.6094 7.70294 69.6164 7.70294C68.2354 7.70294 66.8964 8.06294 65.7284 8.59494C65.3684 8.76494 65.0914 9.16794 65.0914 9.55094C65.0965 9.67333 65.1243 9.7937 65.1734 9.90594C65.1894 9.95094 65.2064 9.99594 65.2184 10.0389L65.3884 10.3999C65.6014 10.8249 65.9624 11.0379 66.4084 11.0379C66.5424 11.0379 66.6894 10.9979 66.8294 10.9599L66.9394 10.9309C67.5764 10.7189 68.2354 10.5709 69.2544 10.5709C71.1244 10.5709 71.7614 11.6319 71.7614 13.6079V14.0119C71.1024 13.5229 69.9134 13.1409 68.7234 13.1409V13.1399ZM69.4034 15.4549C70.3804 15.4549 71.1454 15.6669 71.7614 16.1139H71.7824V17.5149C71.3574 18.0889 70.6144 18.7259 69.1694 18.7259C68.0654 18.7259 67.2364 18.1529 67.2364 17.1329C67.2364 15.9859 68.2564 15.4549 69.4034 15.4549ZM86.3124 19.8949C86.3158 19.7137 86.2638 19.5358 86.1634 19.3849L85.8874 18.9389C85.6324 18.4929 85.3354 18.3229 84.9524 18.3229C84.7624 18.3229 84.5494 18.3649 84.2724 18.4709C83.9964 18.5779 83.6784 18.6199 83.3174 18.6199C82.1914 18.6199 81.7024 17.6429 81.7024 16.1769V11.2499H84.9524C85.5684 11.2499 86.0784 10.7399 86.0784 10.1239V9.10394C86.0784 8.48894 85.5684 7.97894 84.9524 7.97894H81.7024V5.34494C81.7024 4.72894 81.1924 4.21894 80.5764 4.21894H79.3664C78.7504 4.21894 78.2404 4.72894 78.2404 5.34494V16.3049C78.2404 19.7679 79.3874 21.7439 82.4244 21.7439C83.7634 21.7439 84.7824 21.4679 85.8024 20.8509C86.1424 20.6809 86.3124 20.2779 86.3124 19.8959V19.8949ZM93.1944 13.1399C90.4544 13.1399 88.2664 14.5419 88.2664 17.5149C88.2664 20.1279 90.0504 21.6579 92.4294 21.6789C94.2564 21.6789 95.7014 20.9779 96.4234 19.9589V20.4039C96.4234 21.0199 96.9334 21.5299 97.5494 21.5299H98.3354C98.9514 21.5299 99.4614 21.0199 99.4614 20.4039V13.3099C99.4614 9.74194 98.0804 7.70294 94.0864 7.70294C92.7064 7.70294 91.3674 8.06294 90.1994 8.59494C89.8384 8.76494 89.5624 9.16794 89.5624 9.55094C89.5675 9.67333 89.5953 9.7937 89.6444 9.90594C89.6604 9.95094 89.6774 9.99594 89.6894 10.0389L89.8594 10.3999C90.0724 10.8249 90.4334 11.0379 90.8794 11.0379C91.0134 11.0379 91.1604 10.9979 91.2994 10.9599L91.4094 10.9309C92.0474 10.7189 92.7064 10.5709 93.7254 10.5709C95.5954 10.5709 96.2324 11.6319 96.2324 13.6079V14.0119C95.5734 13.5229 94.3844 13.1409 93.1944 13.1409V13.1399ZM93.8744 15.4549C94.8514 15.4549 95.6164 15.6669 96.2324 16.1139H96.2534V17.5149C95.8284 18.0889 95.0854 18.7259 93.6404 18.7259C92.5364 18.7259 91.7074 18.1529 91.7074 17.1329C91.7074 15.9859 92.7274 15.4549 93.8744 15.4549ZM110.676 7.74494C109.019 7.74494 107.426 8.40294 106.47 9.46494H106.407V9.08194C106.407 8.46594 105.897 7.95594 105.281 7.95594H104.07C103.454 7.95594 102.944 8.46594 102.944 9.08194V20.3619C102.944 20.9779 103.454 21.4879 104.07 21.4879H105.281C105.897 21.4879 106.407 20.9779 106.407 20.3619V12.4169C107.023 11.5039 108.021 10.9729 109.232 10.9729C110.676 10.9729 111.462 11.8859 111.462 13.3099V20.3199C111.462 20.9349 111.972 21.4449 112.588 21.4449H113.799C114.415 21.4449 114.925 20.9349 114.925 20.3189V13.5009C114.925 13.3249 114.918 13.1049 114.913 12.9069C114.908 12.7449 114.903 12.5969 114.903 12.5019C115.371 11.5889 116.39 10.9519 117.686 10.9519C119.322 10.9519 120.002 11.8649 120.002 13.5429V20.3619C120.002 20.9779 120.511 21.4879 121.127 21.4879H122.338C122.954 21.4879 123.464 20.9779 123.464 20.3619V12.6719C123.464 8.95494 121.616 7.74394 119.152 7.74394C117.07 7.74394 115.562 8.63594 114.606 9.91094C114.118 8.67894 112.737 7.74394 110.676 7.74394V7.74494ZM129.284 5.27994C130.261 5.27994 131.26 4.49394 131.26 3.11294C131.26 1.90294 130.261 1.11694 129.284 1.11694C128.116 1.11694 127.118 1.90294 127.118 3.11294C127.118 4.49394 128.116 5.27994 129.284 5.27994ZM130.941 9.10394C130.941 8.48794 130.431 7.97794 129.815 7.97794V7.95594H128.605C127.989 7.95594 127.479 8.46594 127.479 9.08194V20.3619C127.479 20.9779 127.989 21.4879 128.605 21.4879H129.815C130.431 21.4879 130.941 20.9779 130.941 20.3619V9.10394ZM141.881 10.8879C142.752 10.8879 143.453 11.0369 144.26 11.4189C144.403 11.4989 144.558 11.5299 144.698 11.5589L144.833 11.5889C145.237 11.5889 145.619 11.3339 145.853 10.9519L146.299 10.1659C146.405 10.0169 146.427 9.84694 146.427 9.67694C146.427 9.29494 146.235 8.84894 145.896 8.67894C144.579 7.95594 143.262 7.65894 141.456 7.65894C137.335 7.65894 134.467 10.8029 134.467 14.7329C134.467 18.9809 137.42 21.8059 141.881 21.8059C143.559 21.8059 144.982 21.5089 146.597 20.2129C146.851 20.0219 147 19.6179 147 19.2569C147 19.0239 146.936 18.7899 146.788 18.6409L146.278 18.0039C146.166 17.8643 146.023 17.7518 145.862 17.6746C145.7 17.5974 145.523 17.5575 145.343 17.5579C145.11 17.5579 144.855 17.6429 144.621 17.7919C143.835 18.3019 143.07 18.5779 142.008 18.5779C139.969 18.5779 138.121 17.0909 138.121 14.7119C138.121 12.3539 139.948 10.8879 141.881 10.8879Z" fill="#B7B7B7"/>
</svg>
