<svg width="105" height="39" viewBox="0 0 105 39" fill="none" xmlns="http://www.w3.org/2000/svg">
<path fill-rule="evenodd" clip-rule="evenodd" d="M0 6L18 0V9.5L24 7.5V39L6 33V27.5L0 25.5V6ZM18 31.5L8 28.167V31.56L22 36.225V10.275L18 11.608V31.5Z" fill="#B7B7B7"/>
<path d="M42.9 27V16.451H39.39V13.058H50.876V16.45H47.346V27H42.9Z" fill="#B7B7B7"/>
<path d="M59.481 27.254C55.405 27.254 53.105 25.226 53.105 21.248V13.058H57.511V21.073C57.511 22.886 57.901 23.783 59.481 23.783C61.041 23.783 61.431 22.886 61.431 21.053V13.058H65.877V21.209C65.877 25.401 63.381 27.254 59.481 27.254Z" fill="#B7B7B7"/>
<path fill-rule="evenodd" clip-rule="evenodd" d="M68.965 27V13.058H74.523C78.54 13.058 80.256 14.852 80.256 17.835V17.913C80.256 20.819 78.326 22.457 74.718 22.457H73.372V27H68.965ZM74.288 19.493H73.372V16.353H74.308C75.458 16.353 76.063 16.783 76.063 17.855V17.933C76.063 18.966 75.458 19.493 74.288 19.493Z" fill="#B7B7B7"/>
<path d="M82.563 13.058V27H92.06V23.588H86.99V13.058H82.563Z" fill="#B7B7B7"/>
<path d="M94.562 27V13.058H104.468V16.451H98.969V18.421H103.337V21.521H98.969V23.607H104.78V27H94.562Z" fill="#B7B7B7"/>
</svg>
