<svg width="156" height="160" viewBox="0 0 156 160" fill="none" xmlns="http://www.w3.org/2000/svg">
<path fill-rule="evenodd" clip-rule="evenodd" d="M6.33053 110.214C6.12649 108.468 8.29054 107.309 11.1382 105.785C13.5214 104.51 16.3835 102.978 18.7369 100.631C25.6704 93.7151 30.4187 85.6908 34.0833 77.6828C31.6154 72.4423 29.6029 66.6322 28.0554 62.1646C27.8772 61.65 27.7051 61.1533 27.5392 60.6773C24.9048 53.1174 28.2963 53.9396 32.7619 55.0223C36.655 55.9661 41.3645 57.1079 43.6091 53.0659C44.2292 51.4877 44.8558 49.9794 45.5036 48.5561C44.0912 47.728 42.5641 46.773 40.9113 45.6742C37.4633 43.382 35.0994 40.0164 35.3666 39.0912C35.6869 37.9834 36.1943 37.9917 37.7018 38.0161C40.0976 38.055 45.0193 38.1349 55.7298 33.8404C55.936 33.7577 56.1758 33.6593 56.447 33.5481C59.4981 32.2962 66.5198 29.415 74.4295 28.9213C78.2574 28.4512 82.5176 28.5215 87.2481 29.351C110.066 33.2868 121.445 43.0063 125.91 66.5073C127.204 68.1928 130.113 68.0816 132.807 67.9785C137.021 67.8174 140.71 67.6763 136.876 74.4582C134.732 78.2519 131.27 82.9499 127.334 87.1866C125.587 117.273 103.677 145.787 84.0874 146.522C73.5852 146.917 77.0291 142.634 80.5141 138.3C81.1848 137.466 81.857 136.63 82.4316 135.826C76.9837 143.456 56.8238 144.796 50.4315 142.452C45.4126 140.613 49.7408 135.602 53.5581 131.184C54.6028 129.974 55.6093 128.809 56.3754 127.766C51.7254 133.337 32.1196 134.16 25.4484 129.791C22.3291 127.749 24.3058 125.619 28.5582 121.038C29.8602 119.635 31.3756 118.002 33.0234 116.072C27.9863 121.654 7.12903 117.05 6.33053 110.214ZM105.018 65.694C108.257 65.1478 108.718 60.6421 106.52 57.2337C106.52 57.2337 104.708 54.3507 102.125 53.6587C98.6815 52.7361 96.3186 54.091 96.3186 54.091C92.9949 55.8009 90.8042 60.2932 93.3319 62.1962C94.3202 63.1167 95.7822 63.2574 97.2378 63.3975C98.0595 63.4765 98.8791 63.5554 99.6103 63.7743C100.369 64.0012 101.024 64.3765 101.657 64.7388C102.716 65.3447 103.711 65.9144 105.018 65.694ZM93.8613 75.6425C94.4784 75.0383 94.0522 74.1337 93.2316 73.8645C92.4402 73.605 91.5238 74.0473 90.7616 74.4151L90.6777 74.4556C90.3669 74.6052 89.9919 74.7374 89.5501 74.8701C88.3859 75.2197 87.8045 75.1732 87.3592 75.1376L87.2791 75.1313C86.4869 75.071 86.2432 75.0216 85.1804 74.5374C84.8478 74.3859 84.4783 74.1754 84.1513 73.9244C83.4662 73.3986 82.5566 72.806 81.7047 72.9478C80.8529 73.0897 80.2943 73.9181 80.8054 74.6142C81.2846 75.2668 81.9485 75.8518 82.5608 76.3913L82.5609 76.3914C82.7365 76.5462 82.9079 76.6972 83.0695 76.845C84.1719 77.8534 85.5806 78.4631 87.0704 78.5765C88.5602 78.69 90.0449 78.3006 91.2873 77.4707C91.4913 77.3344 91.7082 77.1971 91.9304 77.0564C92.5958 76.6352 93.3083 76.1841 93.8613 75.6425ZM73.1129 53.6945C70.2496 56.5667 69.756 61.0689 72.8087 62.2817C74.0405 62.7711 75.1331 62.4226 76.295 62.052C76.9898 61.8303 77.7094 61.6008 78.4984 61.5378C79.2592 61.477 80.0772 61.5716 80.8972 61.6665L80.8972 61.6665C82.3498 61.8345 83.8088 62.0033 84.9681 61.3104C87.8385 59.9793 86.6377 55.1276 83.7461 52.7592C83.7461 52.7592 81.7197 50.9393 78.1591 51.1198C75.4888 51.2552 73.1129 53.6945 73.1129 53.6945Z" fill="url(#paint0_linear_740_2456)"/>
<defs>
<linearGradient id="paint0_linear_740_2456" x1="104.643" y1="26.29" x2="63.4187" y2="145.147" gradientUnits="userSpaceOnUse">
<stop stop-color="white"/>
<stop offset="1" stop-color="white" stop-opacity="0.51"/>
</linearGradient>
</defs>
</svg>
